<svg xmlns="http://www.w3.org/2000/svg" xmlns:xlink="http://www.w3.org/1999/xlink" width="3000" height="3000" version="1.1"><g id="ideograms"><path d="M 1500.000,275.000 A1225.000,1225.000 0.000 0,1 2704.207,1275.254 L 2753.358,1266.080 A1275.000,1275.000 0.000 0,0 1500.000,225.000 Z" style="stroke:none;fill:#e62e2e"/><path d="M 1500.000,275.000 A1225.000,1225.000 0.000 0,1 2704.207,1275.254 L 2753.358,1266.080 A1275.000,1275.000 0.000 0,0 1500.000,225.000 Z" style="stroke:none;fill:none"/><path d="M 2707.509,1293.734 A1225.000,1225.000 0.000 0,1 2724.204,1455.860 L 2774.172,1454.058 A1275.000,1275.000 0.000 0,0 2756.796,1285.314 Z" style="stroke:none;fill:#e62ee6"/><path d="M 2707.509,1293.734 A1225.000,1225.000 0.000 0,1 2724.204,1455.860 L 2774.172,1454.058 A1275.000,1275.000 0.000 0,0 2756.796,1285.314 Z" style="stroke:none;fill:none"/><path d="M 2724.737,1474.625 A1225.000,1225.000 0.000 0,1 2662.317,1886.840 L 2709.758,1902.629 A1275.000,1275.000 0.000 0,0 2774.726,1473.589 Z" style="stroke:none;fill:#7f2ee6"/><path d="M 2724.737,1474.625 A1225.000,1225.000 0.000 0,1 2662.317,1886.840 L 2709.758,1902.629 A1275.000,1275.000 0.000 0,0 2774.726,1473.589 Z" style="stroke:none;fill:none"/><path d="M 2656.252,1904.606 A1225.000,1225.000 0.000 0,1 2151.350,2537.482 L 2177.935,2579.828 A1275.000,1275.000 0.000 0,0 2703.446,1921.120 Z" style="stroke:none;fill:#d1e52e"/><path d="M 2656.252,1904.606 A1225.000,1225.000 0.000 0,1 2151.350,2537.482 L 2177.935,2579.828 A1275.000,1275.000 0.000 0,0 2703.446,1921.120 Z" style="stroke:none;fill:none"/><path d="M 2135.374,2547.342 A1225.000,1225.000 0.000 0,1 1521.970,2724.803 L 1522.867,2774.795 A1275.000,1275.000 0.000 0,0 2161.308,2590.090 Z" style="stroke:none;fill:#2ea8e6"/><path d="M 2135.374,2547.342 A1225.000,1225.000 0.000 0,1 1521.970,2724.803 L 1522.867,2774.795 A1275.000,1275.000 0.000 0,0 2161.308,2590.090 Z" style="stroke:none;fill:none"/><path d="M 1503.198,2724.996 A1225.000,1225.000 0.000 0,1 740.886,2461.443 L 709.902,2500.685 A1275.000,1275.000 0.000 0,0 1503.329,2774.996 Z" style="stroke:none;fill:#6be52e"/><path d="M 1503.198,2724.996 A1225.000,1225.000 0.000 0,1 740.886,2461.443 L 709.902,2500.685 A1275.000,1275.000 0.000 0,0 1503.329,2774.996 Z" style="stroke:none;fill:none"/><path d="M 726.242,2449.697 A1225.000,1225.000 0.000 0,1 444.349,2121.470 L 401.261,2146.836 A1275.000,1275.000 0.000 0,0 694.660,2488.460 Z" style="stroke:none;fill:#2e42e6"/><path d="M 726.242,2449.697 A1225.000,1225.000 0.000 0,1 444.349,2121.470 L 401.261,2146.836 A1275.000,1275.000 0.000 0,0 694.660,2488.460 Z" style="stroke:none;fill:none"/><path d="M 434.949,2105.220 A1225.000,1225.000 0.000 0,1 281.365,1375.282 L 231.625,1370.192 A1275.000,1275.000 0.000 0,0 391.477,2129.923 Z" style="stroke:none;fill:#2ee557"/><path d="M 434.949,2105.220 A1225.000,1225.000 0.000 0,1 281.365,1375.282 L 231.625,1370.192 A1275.000,1275.000 0.000 0,0 391.477,2129.923 Z" style="stroke:none;fill:none"/><path d="M 283.420,1356.622 A1225.000,1225.000 0.000 0,1 813.821,485.218 L 785.814,443.798 A1275.000,1275.000 0.000 0,0 233.763,1350.770 Z" style="stroke:none;fill:#e6942e"/><path d="M 283.420,1356.622 A1225.000,1225.000 0.000 0,1 813.821,485.218 L 785.814,443.798 A1275.000,1275.000 0.000 0,0 233.763,1350.770 Z" style="stroke:none;fill:none"/><path d="M 829.452,474.822 A1225.000,1225.000 0.000 0,1 1481.228,275.144 L 1480.462,225.150 A1275.000,1275.000 0.000 0,0 802.083,432.977 Z" style="stroke:none;fill:#2ee5bd"/><path d="M 829.452,474.822 A1225.000,1225.000 0.000 0,1 1481.228,275.144 L 1480.462,225.150 A1275.000,1275.000 0.000 0,0 802.083,432.977 Z" style="stroke:none;fill:none"/></g><g id="cellvalues"><path d="M 2724.451,1443.042 A 1225.775,1225.775 0.00 0,1 2725.0,1455.8 Q 1500.0,1500.0 760.9,2456.5 A 1208.775,1208.775 0.00 0,1 750.9,2448.7 Q 1500.0,1500.0 2724.5,1443.0 Z" style="stroke-width:1;stroke:#000;fill:#e62ee6;opacity:.8"/></g><g id="cellvalues"><path d="M 2723.206,1420.676 A 1225.775,1225.775 0.00 0,1 2724.5,1443.0 Q 1500.0,1500.0 1459.4,291.9 A 1208.775,1208.775 0.00 0,1 1481.5,291.4 Q 1500.0,1500.0 2723.2,1420.7 Z" style="stroke-width:1;stroke:#000;fill:#e62ee6;opacity:.8"/></g><g id="cellvalues"><path d="M 2721.282,1395.148 A 1225.775,1225.775 0.00 0,1 2723.2,1420.7 Q 1500.0,1500.0 295.2,1402.1 A 1208.775,1208.775 0.00 0,1 297.5,1376.9 Q 1500.0,1500.0 2721.3,1395.1 Z" style="stroke-width:1;stroke:#000;fill:#e62ee6;opacity:.8"/></g><g id="cellvalues"><path d="M 2673.687,1853.529 A 1225.775,1225.775 0.00 0,1 2663.1,1887.1 Q 1500.0,1500.0 788.7,2477.3 A 1208.775,1208.775 0.00 0,1 760.9,2456.5 Q 1500.0,1500.0 2673.7,1853.5 Z" style="stroke-width:1;stroke:#000;fill:#7f2ee6;opacity:.8"/><path d="M 2717.768,1360.123 A 1225.775,1225.775 0.00 0,1 2721.3,1395.1 Q 1500.0,1500.0 791.9,520.4 A 1208.775,1208.775 0.00 0,1 822.9,498.7 Q 1500.0,1500.0 2717.8,1360.1 Z" style="stroke-width:1;stroke:#000;fill:#e62ee6;opacity:.8"/></g><g id="cellvalues"><path d="M 2685.822,1810.404 A 1225.775,1225.775 0.00 0,1 2673.7,1853.5 Q 1500.0,1500.0 759.0,545.0 A 1208.775,1208.775 0.00 0,1 791.9,520.4 Q 1500.0,1500.0 2685.8,1810.4 Z" style="stroke-width:1;stroke:#000;fill:#7f2ee6;opacity:.8"/></g><g id="cellvalues"><path d="M 2697.750,1760.615 A 1225.775,1225.775 0.00 0,1 2685.8,1810.4 Q 1500.0,1500.0 1409.0,294.7 A 1208.775,1208.775 0.00 0,1 1459.4,291.9 Q 1500.0,1500.0 2697.7,1760.6 Z" style="stroke-width:1;stroke:#000;fill:#7f2ee6;opacity:.8"/><path d="M 1573.144,2723.591 A 1225.775,1225.775 0.00 0,1 1522.0,2725.6 Q 1500.0,1500.0 719.8,576.7 A 1208.775,1208.775 0.00 0,1 759.0,545.0 Q 1500.0,1500.0 1573.1,2723.6 Z" style="stroke-width:1;stroke:#000;fill:#2ea8e6;opacity:.8"/></g><g id="cellvalues"><path d="M 2708.670,1704.062 A 1225.775,1225.775 0.00 0,1 2697.7,1760.6 Q 1500.0,1500.0 488.3,2161.5 A 1208.775,1208.775 0.00 0,1 458.3,2113.2 Q 1500.0,1500.0 2708.7,1704.1 Z" style="stroke-width:1;stroke:#000;fill:#7f2ee6;opacity:.8"/><path d="M 2693.074,1218.756 A 1225.775,1225.775 0.00 0,1 2705.0,1275.1 Q 1500.0,1500.0 522.3,2210.8 A 1208.775,1208.775 0.00 0,1 488.3,2161.5 Q 1500.0,1500.0 2693.1,1218.8 Z" style="stroke-width:1;stroke:#000;fill:#e62e2e;opacity:.8"/></g><g id="cellvalues"><path d="M 2708.273,1293.603 A 1225.775,1225.775 0.00 0,1 2717.8,1360.1 Q 1500.0,1500.0 562.8,2263.4 A 1208.775,1208.775 0.00 0,1 522.3,2210.8 Q 1500.0,1500.0 2708.3,1293.6 Z" style="stroke-width:1;stroke:#000;fill:#e62ee6;opacity:.8"/></g><g id="cellvalues"><path d="M 1665.484,2714.553 A 1225.775,1225.775 0.00 0,1 1573.1,2723.6 Q 1500.0,1500.0 625.4,2334.3 A 1208.775,1208.775 0.00 0,1 562.8,2263.4 Q 1500.0,1500.0 1665.5,2714.6 Z" style="stroke-width:1;stroke:#000;fill:#2ea8e6;opacity:.8"/><path d="M 2225.841,2487.765 A 1225.775,1225.775 0.00 0,1 2151.8,2538.1 Q 1500.0,1500.0 654.5,636.2 A 1208.775,1208.775 0.00 0,1 719.8,576.7 Q 1500.0,1500.0 2225.8,2487.8 Z" style="stroke-width:1;stroke:#000;fill:#d1e52e;opacity:.8"/></g><g id="cellvalues"><path d="M 1769.379,2695.809 A 1225.775,1225.775 0.00 0,1 1665.5,2714.6 Q 1500.0,1500.0 875.4,2534.9 A 1208.775,1208.775 0.00 0,1 788.7,2477.3 Q 1500.0,1500.0 1769.4,2695.8 Z" style="stroke-width:1;stroke:#000;fill:#2ea8e6;opacity:.8"/></g><g id="cellvalues"><path d="M 2324.850,2406.723 A 1225.775,1225.775 0.00 0,1 2225.8,2487.8 Q 1500.0,1500.0 291.6,1528.2 A 1208.775,1208.775 0.00 0,1 295.2,1402.1 Q 1500.0,1500.0 2324.9,2406.7 Z" style="stroke-width:1;stroke:#000;fill:#d1e52e;opacity:.8"/></g><g id="cellvalues"><path d="M 2433.786,2294.083 A 1225.775,1225.775 0.00 0,1 2324.9,2406.7 Q 1500.0,1500.0 736.5,2437.1 A 1208.775,1208.775 0.00 0,1 625.4,2334.3 Q 1500.0,1500.0 2433.8,2294.1 Z" style="stroke-width:1;stroke:#000;fill:#d1e52e;opacity:.8"/><path d="M 2647.445,1068.846 A 1225.775,1225.775 0.00 0,1 2693.1,1218.8 Q 1500.0,1500.0 305.0,1682.1 A 1208.775,1208.775 0.00 0,1 291.6,1528.2 Q 1500.0,1500.0 2647.4,1068.8 Z" style="stroke-width:1;stroke:#000;fill:#e62e2e;opacity:.8"/></g><g id="cellvalues"><path d="M 1943.694,2642.655 A 1225.775,1225.775 0.00 0,1 1769.4,2695.8 Q 1500.0,1500.0 1231.3,321.5 A 1208.775,1208.775 0.00 0,1 1409.0,294.7 Q 1500.0,1500.0 1943.7,2642.7 Z" style="stroke-width:1;stroke:#000;fill:#2ea8e6;opacity:.8"/></g><g id="cellvalues"><path d="M 2557.729,2119.462 A 1225.775,1225.775 0.00 0,1 2433.8,2294.1 Q 1500.0,1500.0 1030.3,386.2 A 1208.775,1208.775 0.00 0,1 1231.3,321.5 Q 1500.0,1500.0 2557.7,2119.5 Z" style="stroke-width:1;stroke:#000;fill:#d1e52e;opacity:.8"/><path d="M 2135.776,2548.004 A 1225.775,1225.775 0.00 0,1 1943.7,2642.7 Q 1500.0,1500.0 356.0,1890.3 A 1208.775,1208.775 0.00 0,1 305.0,1682.1 Q 1500.0,1500.0 2135.8,2548.0 Z" style="stroke-width:1;stroke:#000;fill:#2ea8e6;opacity:.8"/></g><g id="cellvalues"><path d="M 2549.983,867.496 A 1225.775,1225.775 0.00 0,1 2647.4,1068.8 Q 1500.0,1500.0 838.3,488.4 A 1208.775,1208.775 0.00 0,1 1030.3,386.2 Q 1500.0,1500.0 2550.0,867.5 Z" style="stroke-width:1;stroke:#000;fill:#e62e2e;opacity:.8"/></g><g id="cellvalues"><path d="M 2725.512,1474.609 A 1225.775,1225.775 0.00 0,1 2708.7,1704.1 Q 1500.0,1500.0 449.1,2097.2 A 1208.775,1208.775 0.00 0,1 356.0,1890.3 Q 1500.0,1500.0 2725.5,1474.6 Z" style="stroke-width:1;stroke:#000;fill:#7f2ee6;opacity:.8"/></g><g id="cellvalues"><path d="M 2656.984,1904.862 A 1225.775,1225.775 0.00 0,1 2557.7,2119.5 Q 1500.0,1500.0 1088.7,2636.6 A 1208.775,1208.775 0.00 0,1 875.4,2534.9 Q 1500.0,1500.0 2657.0,1904.9 Z" style="stroke-width:1;stroke:#000;fill:#d1e52e;opacity:.8"/></g><g id="cellvalues"><path d="M 2269.599,545.934 A 1225.775,1225.775 0.00 0,1 2550.0,867.5 Q 1500.0,1500.0 1503.2,2708.8 A 1208.775,1208.775 0.00 0,1 1088.7,2636.6 Q 1500.0,1500.0 2269.6,545.9 Z" style="stroke-width:1;stroke:#000;fill:#e62e2e;opacity:.8"/></g><g id="cellvalues"><path d="M 1500.000,274.225 A 1225.775,1225.775 0.00 0,1 2269.6,545.9 Q 1500.0,1500.0 299.5,1358.5 A 1208.775,1208.775 0.00 0,1 654.5,636.2 Q 1500.0,1500.0 1500.0,274.2 Z" style="stroke-width:1;stroke:#000;fill:#e62e2e;opacity:.8"/></g><g id="plot0"><text x="2398.4" y="459" transform="rotate(309.8,2398.4,459.0)" style="fill:#000;font-size:48px;text-anchor:start">A</text><text x="2558.6" y="2377.5" transform="rotate(38.6,2558.6,2377.5)" style="fill:#000;font-size:48px;text-anchor:start">D</text><text x="473.4" y="2414.7" transform="rotate(319.4,473.4,2414.7)" style="fill:#000;font-size:48px;text-anchor:end">G</text><text x="159.5" y="1806.1" transform="rotate(348.2,159.5,1806.1)" style="fill:#000;font-size:48px;text-anchor:end">H</text><text x="2870.2" y="1384.8" transform="rotate(354.2,2870.2,1384.8)" style="fill:#000;font-size:48px;text-anchor:start">B</text><text x="2855.2" y="1732.3" transform="rotate(8.7,2855.2,1732.3)" style="fill:#000;font-size:48px;text-anchor:start">C</text><text x="1857.1" y="2827.8" transform="rotate(73.9,1857.1,2827.8)" style="fill:#000;font-size:48px;text-anchor:start">E</text><text x="1073.7" y="2807.3" transform="rotate(289.1,1073.7,2807.3)" style="fill:#000;font-size:48px;text-anchor:end">F</text><text x="1074.1" y="192.6" transform="rotate(73.0,1074.1,192.6)" style="fill:#000;font-size:48px;text-anchor:end">J</text><text x="313.3" y="805.5" transform="rotate(31.4,313.3,805.5)" style="fill:#000;font-size:48px;text-anchor:end">I</text></g></svg>